<?xml version="1.0" encoding="UTF-8" standalone="no"?> <svg width="24" height="24" viewBox="0 0 24 24" fill="#007efb" xmlns="http://www.w3.org/2000/svg">
<path fill-rule="evenodd" clip-rule="evenodd" d="M1 4C1 2.34315 2.34315 1 4 1H20C21.6569 1 23 2.34315 23 4V20C23 21.6569 21.6569 23 20 23H4C2.34315 23 1 21.6569 1 20V4ZM4 3C3.44772 3 3 3.44772 3 4V20C3 20.5523 3.44772 21 4 21H20C20.5523 21 21 20.5523 21 20V4C21 3.44772 20.5523 3 20 3H4ZM12.6173 5.07612C12.991 4.92134 13.4211 5.0069 13.7071 5.29289L16.7071 8.29289C17.0976 8.68342 17.0976 9.31658 16.7071 9.70711C16.3166 10.0976 15.6834 10.0976 15.2929 9.70711L14 8.41421V15.9384C14 17.315 13.0631 18.515 11.7276 18.8489L11.6534 18.8674C9.79766 19.3314 8 17.9278 8 16.0149C8 14.6657 8.91824 13.4897 10.2272 13.1624L12 12.7192V6C12 5.59554 12.2436 5.2309 12.6173 5.07612ZM12 14.7808L10.7122 15.1027C10.2936 15.2074 10 15.5835 10 16.0149C10 16.6267 10.5749 17.0755 11.1683 16.9271L11.2425 16.9086C11.2425 16.9086 11.2425 16.9086 11.2425 16.9086C11.6877 16.7973 12 16.3973 12 15.9384V14.7808Z" fill="rgb(4,17,29)"/>
</svg>
