<?xml version="1.0" encoding="UTF-8" standalone="no"?> <svg width="64" height="64" viewBox="0 0 64 64" fill="none" xmlns="http://www.w3.org/2000/svg">
<path d="M43.34 44.69V34.8H60.49V24.8C60.49 23.5004 59.9737 22.2541 59.0548 21.3352C58.1359 20.4162 56.8895 19.9 55.59 19.9H8.85997C7.56214 19.9106 6.32152 20.4356 5.41037 21.3599C4.49922 22.2841 3.99198 23.5321 3.99997 24.83V54.83C3.99997 56.1296 4.51622 57.3759 5.43515 58.2948C6.35408 59.2137 7.60041 59.73 8.89997 59.73H55.59C56.8895 59.73 58.1359 59.2137 59.0548 58.2948C59.9737 57.3759 60.49 56.1296 60.49 54.83V44.69H43.34Z" fill="#1890ff"/>
<path d="M56 18.64H53V8.35999C52.9988 7.55413 52.8028 6.76049 52.4288 6.04669C52.0547 5.33289 51.5137 4.72008 50.8518 4.26045C50.1898 3.80083 49.4266 3.50801 48.6271 3.40694C47.8276 3.30587 47.0155 3.39955 46.26 3.67999L8.1 18.64H8C6.67392 18.64 5.40215 19.1668 4.46447 20.1045C3.52678 21.0421 3 22.3139 3 23.64V55.64C3 56.9661 3.52678 58.2378 4.46447 59.1755C5.40215 60.1132 6.67392 60.64 8 60.64H56C57.3261 60.64 58.5979 60.1132 59.5355 59.1755C60.4732 58.2378 61 56.9661 61 55.64V23.64C61 22.3139 60.4732 21.0421 59.5355 20.1045C58.5979 19.1668 57.3261 18.64 56 18.64V18.64ZM47 5.54999C47.451 5.39052 47.9337 5.34122 48.4076 5.40621C48.8816 5.4712 49.3331 5.64859 49.7246 5.92359C50.116 6.19859 50.436 6.56321 50.6579 6.98704C50.8798 7.41087 50.9971 7.88161 51 8.35999V18.64H13.58L47 5.54999ZM56 58.64H8C7.20435 58.64 6.44129 58.3239 5.87868 57.7613C5.31607 57.1987 5 56.4356 5 55.64V23.64C5 22.8443 5.31607 22.0813 5.87868 21.5187C6.44129 20.9561 7.20435 20.64 8 20.64H56C56.7956 20.64 57.5587 20.9561 58.1213 21.5187C58.6839 22.0813 59 22.8443 59 23.64V33.82H43.71C43.4448 33.82 43.1904 33.9253 43.0029 34.1129C42.8154 34.3004 42.71 34.5548 42.71 34.82V44.46C42.71 44.7252 42.8154 44.9796 43.0029 45.1671C43.1904 45.3546 43.4448 45.46 43.71 45.46H59V55.64C59 56.4356 58.6839 57.1987 58.1213 57.7613C57.5587 58.3239 56.7956 58.64 56 58.64V58.64ZM59 43.46H44.71V35.82H59V43.46Z" fill="#006DF0"/>
</svg>
