<svg xmlns="http://www.w3.org/2000/svg" viewBox="0 0 1080 1080"><g id="Black_logo" data-name="Black logo"><path d="M372.49,405.42,540,294.58,751.57,434.77v99.85c51-39.59,97-85.41,135.88-137.15,32.89-43.77,64.19-96.09,84.58-154.61,27.25-78.23-51.36-157.14-127.19-123.78a117.26,117.26,0,0,0-11.43,5.83L540,294.53,247.88,125C176,83.21,85.81,135,85.62,218.11L84.38,776.78C102.67,699,144.47,625.53,190.83,571.26,244.67,508.22,303.51,451.41,372.49,405.42Z"/><path d="M889.17,508.74c-53.84,63-112.68,119.85-181.66,165.84L540,785.41,328.43,645.23V545.38c-51,39.59-97,85.41-135.88,137.15C159.67,726.3,128.36,778.62,108,837.14c-27.25,78.23,51.36,157.14,127.19,123.78a114.1,114.1,0,0,0,11.43-5.84L540,785.47l292.1,169.58c71.93,41.74,162.07-10,162.26-93.16l1.24-558.67C977.33,381.05,935.53,454.47,889.17,508.74Z"/></g></svg>