<svg xmlns="http://www.w3.org/2000/svg" xmlns:xlink="http://www.w3.org/1999/xlink" viewBox="0 0 1080 1080"><defs><style>.cls-1{fill:url(#linear-gradient);}.cls-2{fill:url(#linear-gradient-2);}.cls-3{fill:url(#linear-gradient-3);}.cls-4{fill:url(#linear-gradient-4);}</style><linearGradient id="linear-gradient" x1="490.34" y1="835.58" x2="155.12" y2="600.06" gradientUnits="userSpaceOnUse"><stop offset="0" stop-color="#00a4ff"/><stop offset="0.97" stop-color="#004daa"/></linearGradient><linearGradient id="linear-gradient-2" x1="374.25" y1="116.61" x2="62.13" y2="763.26" gradientUnits="userSpaceOnUse"><stop offset="0" stop-color="#00a4ff"/><stop offset="1" stop-color="#004daa"/></linearGradient><linearGradient id="linear-gradient-3" x1="811.75" y1="835.77" x2="476.52" y2="600.25" gradientTransform="translate(1401.41 1080.19) rotate(180)" xlink:href="#linear-gradient"/><linearGradient id="linear-gradient-4" x1="695.66" y1="116.8" x2="383.54" y2="763.45" gradientTransform="translate(1401.41 1080.19) rotate(180)" xlink:href="#linear-gradient-2"/></defs><g id="Main_logo" data-name="Main logo"><path class="cls-1" d="M84.09,861.89c0,83.5,90.36,135.24,162.48,93.16L540,785.43h0L328.41,643.28V353.91S197.13,452.08,127,600.76C101.51,654.91,84.09,679.61,84.09,861.89Z"/><path class="cls-2" d="M372.47,405.41,540,294.57,247.86,125C175.94,83.21,85.8,135,85.61,218.11L84.09,861.89c0-113,52.26-212.53,108.44-287.3C242.33,508.31,303.49,451.39,372.47,405.41Z"/><path class="cls-3" d="M995.91,218.11c0-83.5-90.36-135.24-162.48-93.16L540,294.57h0l211.59,143.7V726.09S882.87,627.92,953,479.24C978.49,425.09,995.91,400.39,995.91,218.11Z"/><path class="cls-4" d="M707.53,674.59,540,785.43,832.14,955.05c71.92,41.74,162.06-10,162.25-93.16l1.52-643.78c0,113-52.26,212.53-108.44,287.3C837.67,571.69,776.51,628.61,707.53,674.59Z"/></g></svg>