<svg id="SvgjsSvg1001" width="288" height="288" xmlns="http://www.w3.org/2000/svg" version="1.1" xmlns:xlink="http://www.w3.org/1999/xlink" xmlns:svgjs="http://svgjs.com/svgjs"><defs id="SvgjsDefs1002"></defs><g id="SvgjsG1008"><svg xmlns="http://www.w3.org/2000/svg" width="288" height="288" fill="none" viewBox="0 0 315 315"><path fill="#2d6cdf" d="M52.5 96.9238L157.5 157.524V197.924L87.5 157.524V238.324L52.5 218.124V96.9238Z" opacity=".68" class="color061024 svgShape"></path><path fill="#2d6cdf" d="M87.5 238.324V157.524L122.5 177.724V218.124L87.5 238.324Z" opacity=".36" class="color061024 svgShape"></path><path fill="#2d6cdf" d="M52.5 96.9239L87.5 76.7239L192.5 137.324L157.5 157.524L52.5 96.9239Z" class="color061024 svgShape"></path><path fill="#2d6cdf" d="M157.5 157.524L192.5 137.324V177.724L157.5 197.924V157.524Z" opacity=".36" class="color061024 svgShape"></path><path fill="#2d6cdf" d="M192.5 96.9238V218.124L227.5 238.324V117.124L192.5 96.9238Z" opacity=".68" class="color061024 svgShape"></path><path fill="#2d6cdf" d="M262.5 96.9238L227.5 117.124V238.324L262.5 218.124V96.9238Z" opacity=".36" class="color061024 svgShape"></path><path fill="#2d6cdf" d="M227.5 76.7239L262.5 96.9239L227.5 117.124L192.5 96.9239L227.5 76.7239Z" class="color061024 svgShape"></path></svg></g></svg>